<svg xmlns="http://www.w3.org/2000/svg" viewBox="0 0 64 64">
  <path d="M44.3,23.7c0.8,0.8,0.8,2.1,0,2.8L33.6,36H52c1.1,0,2,0.9,2,2s-0.9,2-2,2H33.6l10.7,10.5c0.8,0.8,0.8,2.1,0,2.8c-0.4,0.4-0.9,0.6-1.4,0.6c-0.5,0-1-0.2-1.4-0.6L28.7,33.4c-0.8-0.8-0.8-2.1,0-2.8l13.8-13.5C43.5,22.9,43.9,23.3,44.3,23.7z" fill="red"/>
  <rect x="14" y="21" width="10" height="2" fill="#ff0000"/>
  <rect x="14" y="27" width="10" height="2" fill="#ff0000"/>
  <rect x="14" y="33" width="10" height="2" fill="#ff0000"/>
  <rect x="14" y="39" width="10" height="2" fill="#ff0000"/>
  <rect x="14" y="45" width="10" height="2" fill="#ff0000"/>
  <rect x="14" y="51" width="10" height="2" fill="#ff0000"/>
</svg>
